<svg xmlns="http://www.w3.org/2000/svg" xml:space="preserve" id="katman_1" style="enable-background:new 0 0 512 512" version="1.1" viewBox="0 0 512 512">
  <style>
    .st2{fill:#fff}
  </style>
  <circle cx="256" cy="256" r="250" style="fill:#52b36e"/>
  <path d="M506 259.6c-.2-.3-.5-.6-.8-1-33.1-33.1-66.2-66.1-99.3-99.3-2.7-2.7-5.6-3.9-9.3-3.9-46.6.1-93.1 0-139.7 0H117c-1 0-2.1 0-3.1.2-3.5.5-6.2 3-6.9 6.4-.2 1.2-.2 2.4-.2 3.6 0 60.6 0 121.3-.1 181.9 0 3.6 1.1 6.4 3.7 8.9 21.3 21.2 42.6 42.5 63.8 63.8 28.2 28.2 56.5 56.4 84.6 84.7.4.4.8.8 1.3 1 135-2.1 244-111.3 245.9-246.3z" style="fill:#2cab61"/>
  <path d="M114.4 357h283.2c4.6 0 8.4-3.8 8.4-8.4V163.4c0-4.6-3.8-8.4-8.4-8.4H114.4c-4.6 0-8.4 3.8-8.4 8.4v185.2c0 4.6 3.8 8.4 8.4 8.4zm8.4-30.2 89.8-89.8 103.3 103.3H122.8v-13.5zm216.8 13.4-35.4-35.4 26.3-26.3 56.8 56.8c.6.6 1.2 1.1 1.9 1.4v3.4l-49.6.1zm49.6-168.4v141.9l-52.8-52.8c-3.3-3.3-8.6-3.3-11.9 0L292.4 293l-73.8-73.8c-3.3-3.3-8.6-3.3-11.9 0l-83.9 83.9V171.8h266.4z" class="st2"/>
  <path d="M291.9 251c17.5 0 31.7-14.2 31.7-31.7s-14.2-31.7-31.7-31.7-31.7 14.2-31.7 31.7 14.2 31.7 31.7 31.7zm0-46.6c8.2 0 14.9 6.7 14.9 14.9s-6.7 14.9-14.9 14.9-14.9-6.7-14.9-14.9 6.6-14.9 14.9-14.9z" class="st2"/>
</svg>
